# Blender v2.83.5 OBJ File: 'Sombrero.blend'
# www.blender.org
o Sombrero_Cube.002
v 0.291845 -0.003868 0.291369
v 0.162647 -0.577075 0.168847
v 0.291845 -0.003868 -0.291369
v 0.162647 -0.577075 -0.168847
v -0.291845 -0.003868 0.291369
v -0.162647 -0.577075 0.168847
v -0.291845 -0.003868 -0.291369
v -0.162647 -0.577075 -0.168847
v 0.486741 -0.033466 0.487470
v 0.486741 -0.033466 -0.487470
v -0.486741 -0.033466 0.487470
v -0.486741 -0.033466 -0.487470
v 0.521592 -0.152874 0.521307
v 0.521592 -0.152874 -0.521307
v -0.521592 -0.152875 0.521307
v -0.521592 -0.152875 -0.521307
v 0.000000 -0.004046 -0.292324
v 0.000000 -0.610006 -0.184108
v 0.000000 -0.004046 0.292324
v 0.000000 -0.610006 0.184108
v 0.000000 -0.022105 -0.506333
v 0.000000 -0.022105 0.506333
v 0.000000 -0.131180 -0.549324
v 0.000000 -0.131180 0.549324
v 0.299316 -0.001164 0.000000
v 0.173750 -0.619669 0.000000
v -0.299316 -0.001165 0.000000
v -0.173749 -0.619670 0.000000
v 0.509106 -0.012557 0.000000
v -0.509106 -0.012558 0.000000
v 0.549364 -0.127304 0.000000
v -0.549364 -0.127304 0.000000
v 0.000000 -0.659180 0.000000
v -0.078223 -0.601149 -0.178459
v -0.146810 -0.003970 0.291550
v -0.243518 -0.026133 0.501615
v -0.262187 -0.135448 0.537278
v -0.146810 -0.003970 -0.291550
v -0.078223 -0.601149 0.178459
v -0.243518 -0.026133 -0.501615
v -0.262187 -0.135448 -0.537278
v -0.084497 -0.649718 -0.000000
v 0.146810 -0.003970 -0.291550
v 0.078223 -0.601149 0.178459
v 0.243518 -0.026133 -0.501615
v 0.262187 -0.135448 -0.537278
v 0.078223 -0.601149 -0.178459
v 0.146810 -0.003970 0.291550
v 0.243518 -0.026133 0.501615
v 0.262187 -0.135448 0.537278
v 0.084498 -0.649718 -0.000000
v 0.168304 -0.610571 -0.078472
v -0.297038 -0.002354 -0.141411
v -0.505644 -0.018124 -0.250292
v -0.542949 -0.131947 -0.264838
v 0.297038 -0.002354 -0.141411
v -0.168303 -0.610571 -0.078472
v 0.505644 -0.018124 -0.250292
v 0.542950 -0.131947 -0.264838
v 0.000000 -0.647220 -0.086039
v -0.082207 -0.637690 -0.080226
v 0.082208 -0.637690 -0.080226
v 0.297038 -0.002354 0.141411
v -0.168303 -0.610571 0.078472
v 0.505644 -0.018124 0.250292
v 0.542950 -0.131947 0.264838
v 0.000000 -0.647220 0.086039
v 0.168304 -0.610571 0.078472
v -0.297038 -0.002354 0.141411
v -0.505644 -0.018124 0.250292
v -0.542949 -0.131947 0.264838
v -0.082207 -0.637690 0.080226
v 0.082208 -0.637690 0.080226
v 0.228614 -0.292518 -0.232538
v -0.228613 -0.292518 -0.232538
v -0.228613 -0.292518 0.232538
v 0.228614 -0.292518 0.232538
v 0.000000 -0.290346 0.245813
v 0.000000 -0.290346 -0.245813
v -0.253971 -0.290547 0.000000
v 0.253971 -0.290547 0.000000
v -0.115962 -0.291081 0.241462
v -0.115962 -0.291081 -0.241462
v 0.115962 -0.291081 -0.241462
v 0.115962 -0.291081 0.241462
v -0.240569 -0.291773 -0.114266
v 0.240569 -0.291772 -0.114266
v 0.240569 -0.291772 0.114266
v -0.240569 -0.291773 0.114266
v 0.199900 -0.435729 0.200832
v 0.199900 -0.435729 -0.200832
v -0.199900 -0.435729 -0.200832
v -0.199900 -0.435729 0.200832
v 0.000000 -0.433811 0.222571
v 0.000000 -0.433811 -0.222571
v -0.215717 -0.439675 0.000000
v 0.215717 -0.439675 0.000000
v -0.099788 -0.434840 0.214031
v -0.099788 -0.434840 -0.214031
v 0.099788 -0.434840 -0.214031
v 0.099788 -0.434840 0.214031
v -0.211459 -0.437753 -0.095488
v 0.211460 -0.437753 -0.095488
v 0.211460 -0.437753 0.095488
v -0.211459 -0.437753 0.095488
v 0.260227 -0.146049 -0.262516
v -0.260227 -0.146049 -0.262516
v -0.260227 -0.146049 0.262516
v 0.000000 -0.147481 0.265399
v 0.000000 -0.147481 -0.265399
v -0.279458 -0.142444 0.000000
v 0.279458 -0.142444 0.000000
v -0.131342 -0.147052 0.264753
v -0.131342 -0.147052 -0.264753
v 0.131342 -0.147052 -0.264753
v 0.131342 -0.147052 0.264753
v -0.269385 -0.145679 -0.127800
v 0.269386 -0.145679 -0.127800
v 0.269386 -0.145679 0.127800
v -0.269385 -0.145679 0.127800
v 0.260227 -0.146049 0.262516
vt 0.320312 0.722656
vt 0.382812 0.789062
vt 0.320312 0.789062
vt 0.140625 0.789062
vt 0.054688 0.773438
vt 0.140625 0.722656
vt 0.382812 0.546875
vt 0.468750 0.562500
vt 0.382812 0.609375
vt 0.140625 0.546875
vt 0.156250 0.460938
vt 0.203125 0.546875
vt 0.382812 0.789062
vt 0.359375 0.875000
vt 0.320312 0.789062
vt 0.476562 0.078125
vt 0.367188 0.125000
vt 0.367188 0.078125
vt 0.531250 0.078125
vt 0.640625 0.125000
vt 0.640625 0.078125
vt 0.968750 0.078125
vt 0.859375 0.125000
vt 0.859375 0.078125
vt 0.039062 0.078125
vt 0.148438 0.125000
vt 0.148438 0.078125
vt 0.812500 0.187500
vt 0.750000 0.125000
vt 0.812500 0.125000
vt 0.687500 0.304688
vt 0.632812 0.375000
vt 0.632812 0.304688
vt 0.320312 0.304688
vt 0.382812 0.375000
vt 0.382812 0.304688
vt 0.812500 0.304688
vt 0.875000 0.375000
vt 0.875000 0.304688
vt 0.257812 0.304688
vt 0.320312 0.375000
vt 0.195312 0.187500
vt 0.257812 0.125000
vt 0.195312 0.125000
vt 0.367188 0.078125
vt 0.257812 0.125000
vt 0.367188 0.125000
vt 0.148438 0.078125
vt 0.257812 0.125000
vt 0.148438 0.125000
vt 0.203125 0.789062
vt 0.257812 0.875000
vt 0.156250 0.875000
vt 0.320312 0.546875
vt 0.257812 0.460938
vt 0.359375 0.460938
vt 0.257812 0.722656
vt 0.203125 0.789062
vt 0.203125 0.722656
vt 0.203125 0.609375
vt 0.257812 0.671875
vt 0.203125 0.671875
vt 0.382812 0.375000
vt 0.320312 0.304688
vt 0.382812 0.304688
vt 0.687500 0.187500
vt 0.750000 0.125000
vt 0.687500 0.125000
vt 0.640625 0.078125
vt 0.750000 0.125000
vt 0.640625 0.125000
vt 0.859375 0.078125
vt 0.750000 0.125000
vt 0.859375 0.125000
vt 0.382812 0.722656
vt 0.468750 0.671875
vt 0.468750 0.773438
vt 0.140625 0.609375
vt 0.054688 0.671875
vt 0.054688 0.562500
vt 0.382812 0.609375
vt 0.320312 0.671875
vt 0.320312 0.609375
vt 0.140625 0.609375
vt 0.140625 0.671875
vt 0.140625 0.789062
vt 0.140625 0.722656
vt 0.468750 0.460938
vt 0.476562 0.078125
vt 0.476562 0.125000
vt 0.140625 0.375000
vt 0.195312 0.304688
vt 0.140625 0.304688
vt 0.257812 0.304688
vt 0.195312 0.375000
vt 0.195312 0.304688
vt 0.257812 0.078125
vt 0.257812 0.789062
vt 0.257812 0.609375
vt 0.054688 0.875000
vt 0.039062 0.078125
vt 0.039062 0.125000
vt 0.875000 0.375000
vt 0.812500 0.304688
vt 0.875000 0.304688
vt 0.750000 0.304688
vt 0.812500 0.375000
vt 0.257812 0.078125
vt 0.257812 0.546875
vt 0.257812 0.789062
vt 0.320312 0.546875
vt 0.257812 0.546875
vt 0.140625 0.546875
vt 0.382812 0.546875
vt 0.468750 0.875000
vt 0.968750 0.078125
vt 0.968750 0.125000
vt 0.632812 0.187500
vt 0.632812 0.125000
vt 0.203125 0.546875
vt 0.750000 0.304688
vt 0.687500 0.375000
vt 0.750000 0.078125
vt 0.140625 0.671875
vt 0.140625 0.375000
vt 0.140625 0.304688
vt 0.054688 0.460938
vt 0.531250 0.078125
vt 0.531250 0.125000
vt 0.750000 0.078125
vt 0.382812 0.671875
vt 0.382812 0.722656
vt 0.320312 0.187500
vt 0.257812 0.125000
vt 0.320312 0.125000
vt 0.257812 0.250000
vt 0.320312 0.250000
vt 0.195312 0.187500
vt 0.140625 0.250000
vt 0.140625 0.187500
vt 0.750000 0.187500
vt 0.687500 0.250000
vt 0.687500 0.187500
vt 0.632812 0.304688
vt 0.687500 0.250000
vt 0.632812 0.250000
vt 0.750000 0.187500
vt 0.812500 0.250000
vt 0.812500 0.187500
vt 0.875000 0.250000
vt 0.875000 0.187500
vt 0.257812 0.187500
vt 0.195312 0.250000
vt 0.140625 0.250000
vt 0.140625 0.187500
vt 0.687500 0.304688
vt 0.750000 0.250000
vt 0.382812 0.250000
vt 0.382812 0.187500
vt 0.257812 0.250000
vt 0.195312 0.250000
vt 0.257812 0.187500
vt 0.320312 0.250000
vt 0.320312 0.187500
vt 0.875000 0.250000
vt 0.875000 0.187500
vt 0.382812 0.250000
vt 0.382812 0.187500
vt 0.632812 0.250000
vt 0.632812 0.187500
vt 0.750000 0.250000
vt 0.812500 0.250000
vt 0.812500 0.375000
vt 0.195312 0.375000
vt 0.687500 0.375000
vt 0.632812 0.375000
vt 0.320312 0.375000
vt 0.687500 0.125000
vt 0.632812 0.125000
vt 0.320312 0.125000
vt 0.382812 0.125000
vt 0.812500 0.125000
vt 0.875000 0.125000
vt 0.382812 0.125000
vt 0.140625 0.125000
vt 0.195312 0.125000
vt 0.875000 0.125000
vt 0.140625 0.125000
vt 0.476562 0.125000
vt 0.531250 0.125000
vt 0.968750 0.125000
vt 0.039062 0.125000
vt 0.257812 0.375000
vt 0.382812 0.671875
vt 0.257812 0.375000
vt 0.750000 0.375000
vt 0.750000 0.375000
vn 0.2108 -0.9459 0.2466
vn 0.2910 -0.8920 0.3459
vn 0.2103 -0.9133 0.3488
vn -0.0443 -0.9963 0.0731
vn -0.0716 -0.9966 0.0410
vn -0.0625 -0.9979 0.0151
vn 0.0443 -0.9963 -0.0731
vn 0.0716 -0.9966 -0.0410
vn 0.0625 -0.9979 -0.0151
vn -0.0443 -0.9963 -0.0731
vn -0.0219 -0.9942 -0.1055
vn -0.0058 -0.9954 -0.0959
vn 0.0443 -0.9963 0.0731
vn 0.0219 -0.9942 0.1055
vn 0.0058 -0.9954 0.0959
vn 0.0749 -0.2997 0.9511
vn 0.0598 -0.3143 0.9474
vn 0.0523 -0.3254 0.9441
vn 0.9454 -0.3097 -0.1017
vn 0.9465 -0.3159 -0.0667
vn 0.9456 -0.3201 -0.0579
vn -0.9454 -0.3097 0.1017
vn -0.9465 -0.3159 0.0667
vn -0.9456 -0.3201 0.0579
vn -0.0749 -0.2997 -0.9511
vn -0.0598 -0.3143 -0.9474
vn -0.0523 -0.3254 -0.9441
vn -0.9790 -0.1933 -0.0653
vn -0.9859 -0.1672 0.0000
vn -0.9791 -0.2008 -0.0319
vn -0.9667 -0.2398 0.0899
vn -0.9552 -0.2611 0.1397
vn -0.9649 -0.2398 0.1072
vn -0.1027 -0.2087 -0.9726
vn -0.1583 -0.2347 -0.9591
vn -0.1136 -0.2288 -0.9668
vn 0.9667 -0.2398 -0.0899
vn 0.9552 -0.2611 -0.1397
vn 0.9649 -0.2398 -0.1072
vn 0.0000 -0.1884 -0.9821
vn -0.1239 -0.2197 -0.9677
vn 0.0182 -0.1805 -0.9834
vn 0.0000 -0.1846 -0.9828
vn 0.0074 -0.1892 -0.9819
vn 0.0523 -0.3254 -0.9441
vn 0.0000 -0.3530 -0.9356
vn 0.0598 -0.3143 -0.9474
vn -0.0523 -0.3254 0.9441
vn 0.0000 -0.3530 0.9356
vn -0.0598 -0.3143 0.9474
vn -0.0058 -0.9954 0.0959
vn 0.0000 -0.9958 0.0918
vn -0.0219 -0.9942 0.1055
vn 0.0058 -0.9954 -0.0959
vn 0.0000 -0.9958 -0.0918
vn 0.0219 -0.9942 -0.1055
vn -0.0000 -0.9682 0.2501
vn -0.2103 -0.9133 0.3488
vn -0.2108 -0.9459 0.2466
vn -0.2108 -0.9459 -0.2466
vn 0.0000 -1.0000 -0.0000
vn -0.2118 -0.9773 -0.0000
vn -0.1583 -0.2347 0.9591
vn -0.1027 -0.2087 0.9726
vn -0.1136 -0.2288 0.9668
vn 0.9790 -0.1933 0.0653
vn 0.9859 -0.1672 -0.0000
vn 0.9791 -0.2008 0.0319
vn -0.9456 -0.3201 -0.0579
vn -0.9452 -0.3264 0.0000
vn -0.9465 -0.3159 -0.0667
vn 0.9456 -0.3201 0.0579
vn 0.9452 -0.3264 -0.0000
vn 0.9465 -0.3159 0.0667
vn 0.0625 -0.9979 0.0151
vn 0.0599 -0.9982 0.0000
vn 0.0716 -0.9966 0.0410
vn -0.0625 -0.9979 -0.0151
vn -0.0599 -0.9982 0.0000
vn -0.0716 -0.9966 -0.0410
vn 0.3003 -0.9219 -0.2448
vn 0.2118 -0.9773 -0.0000
vn 0.2108 -0.9459 -0.2466
vn -0.3003 -0.9219 -0.2448
vn -0.3191 -0.9477 -0.0000
vn -0.2910 -0.8920 0.3459
vn -0.3003 -0.9219 0.2448
vn 0.0584 -0.9940 -0.0920
vn 0.0749 -0.2997 -0.9511
vn 0.0783 -0.2929 -0.9529
vn 0.1583 -0.2347 -0.9591
vn 0.1027 -0.2087 -0.9726
vn 0.1136 -0.2288 -0.9668
vn 0.0000 -0.1884 0.9821
vn 0.1239 -0.2197 0.9677
vn 0.1027 -0.2087 0.9726
vn 0.0000 -0.3667 0.9303
vn 0.0000 -0.9965 0.0841
vn -0.0000 -0.9682 -0.2501
vn -0.0584 -0.9940 0.0920
vn -0.0749 -0.2997 0.9511
vn -0.0783 -0.2929 0.9529
vn -0.9552 -0.2611 -0.1397
vn -0.9667 -0.2398 -0.0899
vn -0.9649 -0.2398 -0.1072
vn 0.9695 -0.2450 -0.0000
vn 0.9644 -0.2407 -0.1094
vn 0.0000 -0.3667 -0.9303
vn 0.0000 -0.9965 -0.0841
vn -0.0000 -0.9349 0.3548
vn 0.2103 -0.9133 -0.3488
vn -0.0000 -0.9349 -0.3548
vn -0.2910 -0.8920 -0.3459
vn 0.2910 -0.8920 -0.3459
vn 0.0584 -0.9940 0.0920
vn 0.9454 -0.3097 0.1017
vn 0.9465 -0.3056 0.1038
vn 0.9749 -0.2155 0.0561
vn 0.9743 -0.2231 0.0315
vn -0.2103 -0.9133 -0.3488
vn -0.9695 -0.2450 -0.0000
vn -0.9644 -0.2407 0.1094
vn -0.9436 -0.3311 0.0000
vn -0.0542 -0.9985 0.0000
vn 0.1583 -0.2347 0.9591
vn 0.1136 -0.2288 0.9668
vn -0.0584 -0.9940 -0.0920
vn -0.9454 -0.3097 -0.1017
vn -0.9465 -0.3056 -0.1038
vn 0.9436 -0.3311 0.0000
vn 0.0542 -0.9985 0.0000
vn 0.3003 -0.9219 0.2448
vn -0.0182 -0.1805 0.9834
vn 0.0000 -0.1846 0.9828
vn -0.0074 -0.1892 0.9819
vn 0.0000 -0.1575 0.9875
vn -0.0568 -0.1811 0.9818
vn 0.0182 -0.1805 0.9834
vn 0.0607 -0.2044 0.9770
vn 0.0138 -0.1976 0.9802
vn -0.9867 -0.1627 0.0000
vn -0.9743 -0.2011 0.1013
vn -0.9790 -0.1933 0.0653
vn 0.9649 -0.2398 0.1072
vn 0.9743 -0.2011 0.1013
vn 0.9729 -0.2136 0.0889
vn 0.9867 -0.1627 -0.0000
vn 0.9743 -0.2011 -0.1013
vn 0.9790 -0.1933 -0.0653
vn -0.9729 -0.2136 -0.0889
vn -0.9749 -0.2155 -0.0561
vn 0.0000 -0.1671 0.9859
vn 0.0568 -0.1811 0.9818
vn 0.0607 -0.2044 -0.9770
vn 0.0138 -0.1976 -0.9802
vn 0.9667 -0.2398 0.0899
vn 0.9806 -0.1962 0.0000
vn -0.0607 -0.2044 0.9770
vn -0.0138 -0.1976 0.9802
vn 0.0000 -0.1575 -0.9875
vn 0.0568 -0.1811 -0.9818
vn 0.0000 -0.1671 -0.9859
vn -0.0568 -0.1811 -0.9818
vn -0.0182 -0.1805 -0.9834
vn 0.9729 -0.2136 -0.0889
vn 0.9749 -0.2155 -0.0561
vn -0.0607 -0.2044 -0.9770
vn -0.0138 -0.1976 -0.9802
vn -0.9729 -0.2136 0.0889
vn -0.9749 -0.2155 0.0561
vn -0.9806 -0.1962 0.0000
vn -0.9743 -0.2011 -0.1013
vn -0.9644 -0.2407 -0.1094
vn 0.1239 -0.2197 -0.9677
vn 0.9644 -0.2407 0.1094
vn 0.9552 -0.2611 0.1397
vn -0.1239 -0.2197 0.9677
vn -0.9791 -0.2008 0.0319
vn -0.9743 -0.2231 0.0315
vn -0.0074 -0.1892 -0.9819
vn -0.0014 -0.1992 -0.9800
vn 0.9791 -0.2008 -0.0319
vn 0.9743 -0.2231 -0.0315
vn -0.0014 -0.1992 0.9800
vn 0.0014 -0.1992 -0.9800
vn 0.0074 -0.1892 0.9819
vn -0.9743 -0.2231 -0.0315
vn 0.0014 -0.1992 0.9800
vn 0.0783 -0.2929 0.9529
vn 0.9465 -0.3056 -0.1038
vn -0.9465 -0.3056 0.1038
vn -0.0783 -0.2929 -0.9529
vn 0.0000 -0.2133 -0.9770
vn 0.3191 -0.9477 -0.0000
vn 0.0000 -0.2133 0.9770
vn 0.9739 -0.2271 0.0000
vn -0.9739 -0.2271 0.0000
s 1
f 73/1/1 2/2/2 44/3/3
f 3/4/4 58/5/5 56/6/6
f 5/7/7 70/8/8 69/9/9
f 1/10/10 49/11/11 48/12/12
f 7/13/13 40/14/14 38/15/15
f 12/16/16 41/17/17 40/18/18
f 11/19/19 71/20/20 70/21/21
f 10/22/22 59/23/23 58/24/24
f 9/25/25 50/26/26 49/27/27
f 117/28/28 27/29/29 53/30/30
f 105/31/31 6/32/32 93/33/33
f 99/34/34 8/35/35 92/36/36
f 103/37/37 4/38/38 91/39/39
f 95/40/40 34/41/41 99/34/34
f 115/42/42 17/43/43 43/44/44
f 36/45/45 24/46/46 37/47/47
f 45/48/48 23/49/49 46/50/50
f 43/51/51 21/52/52 45/53/53
f 35/54/54 22/55/55 36/56/56
f 67/57/57 39/58/58 72/59/59
f 61/60/60 33/61/61 42/62/62
f 6/63/63 98/64/64 93/65/65
f 119/66/66 25/67/67 63/68/68
f 65/69/69 31/70/70 66/71/71
f 54/72/72 32/73/73 55/74/74
f 53/75/75 30/76/76 54/77/77
f 63/78/78 29/79/79 65/80/80
f 52/81/81 51/82/82 62/83/83
f 57/84/84 42/62/62 28/85/85
f 72/59/59 6/86/86 64/87/87
f 5/7/7 36/56/56 11/88/88
f 11/89/89 37/47/47 15/90/90
f 4/91/91 100/92/92 91/93/93
f 94/94/94 44/95/95 101/96/96
f 40/18/18 23/49/49 21/97/97
f 38/15/15 21/52/52 17/98/98
f 62/83/83 33/61/61 60/99/99
f 3/4/4 45/53/53 10/100/100
f 10/101/101 46/50/50 14/102/102
f 8/103/103 102/104/104 92/105/105
f 97/106/106 52/107/107 103/37/37
f 49/27/27 24/46/46 22/108/108
f 48/12/12 22/55/55 19/109/109
f 67/57/57 44/3/3 20/110/110
f 47/111/111 60/99/99 18/112/112
f 8/113/113 61/60/60 57/84/84
f 4/114/114 62/83/83 47/111/111
f 7/13/13 54/77/77 12/115/115
f 12/116/116 55/74/74 16/117/117
f 121/118/118 63/68/68 1/119/119
f 34/120/120 60/99/99 61/60/60
f 96/121/121 64/122/122 105/31/31
f 58/24/24 31/70/70 29/123/123
f 56/6/6 29/79/79 25/124/124
f 33/61/61 73/1/1 67/57/57
f 42/62/62 64/87/87 28/85/85
f 101/96/96 2/125/125 90/126/126
f 1/10/10 65/80/80 9/127/127
f 9/128/128 66/71/71 13/129/129
f 33/61/61 72/59/59 42/62/62
f 70/21/21 32/73/73 30/130/130
f 69/9/9 30/76/76 27/131/131
f 51/82/82 68/132/132 73/1/1
f 113/133/133 19/134/134 35/135/135
f 98/64/64 78/136/136 82/137/137
f 116/138/138 77/139/139 121/140/140
f 111/141/141 89/142/142 120/143/143
f 90/144/144 88/145/145 77/146/146
f 112/147/147 87/148/148 118/149/149
f 75/150/150 117/28/28 107/151/151
f 109/152/152 85/153/153 116/138/138
f 74/154/154 115/42/42 106/155/155
f 104/156/156 81/157/157 88/145/145
f 76/158/158 113/133/133 108/159/159
f 100/92/92 79/160/160 84/161/161
f 110/162/162 83/163/163 114/164/164
f 118/149/149 74/165/165 106/166/166
f 114/164/164 75/167/167 107/168/168
f 120/143/143 76/169/169 108/170/170
f 102/104/104 80/171/171 86/172/172
f 57/173/173 96/121/121 102/104/104
f 47/174/174 95/40/40 100/92/92
f 68/175/175 97/106/106 104/156/156
f 2/176/176 104/156/156 90/144/144
f 39/177/177 94/94/94 98/64/64
f 85/153/153 90/126/126 77/139/139
f 80/171/171 105/31/31 89/142/142
f 81/157/157 103/37/37 87/148/148
f 92/105/105 86/172/172 75/150/150
f 78/136/136 101/96/96 85/153/153
f 91/93/93 84/161/161 74/154/154
f 93/65/65 82/137/137 76/158/158
f 79/160/160 99/34/34 83/163/163
f 87/148/148 91/39/39 74/165/165
f 83/163/163 92/36/36 75/167/167
f 89/142/142 93/33/33 76/169/169
f 69/178/178 108/170/170 5/179/179
f 38/180/180 107/168/168 7/181/181
f 56/182/182 106/166/166 3/183/183
f 17/43/43 114/164/164 38/180/180
f 108/159/159 35/135/135 5/184/184
f 106/155/155 43/44/44 3/185/185
f 19/134/134 116/138/138 48/186/186
f 107/151/151 53/30/30 7/187/187
f 25/67/67 118/149/149 56/182/182
f 27/29/29 120/143/143 69/178/178
f 48/186/186 121/140/140 1/188/188
f 82/137/137 109/152/152 113/133/133
f 77/146/146 119/66/66 121/118/118
f 88/145/145 112/147/147 119/66/66
f 84/161/161 110/162/162 115/42/42
f 86/172/172 111/141/141 117/28/28
f 73/1/1 68/132/132 2/2/2
f 3/4/4 10/100/100 58/5/5
f 5/7/7 11/88/88 70/8/8
f 1/10/10 9/127/127 49/11/11
f 7/13/13 12/115/115 40/14/14
f 12/16/16 16/189/189 41/17/17
f 11/19/19 15/190/190 71/20/20
f 10/22/22 14/191/191 59/23/23
f 9/25/25 13/192/192 50/26/26
f 117/28/28 111/141/141 27/29/29
f 105/31/31 64/122/122 6/32/32
f 99/34/34 34/41/41 8/35/35
f 103/37/37 52/107/107 4/38/38
f 95/40/40 18/193/193 34/41/41
f 115/42/42 110/162/162 17/43/43
f 36/45/45 22/108/108 24/46/46
f 45/48/48 21/97/97 23/49/49
f 43/51/51 17/98/98 21/52/52
f 35/54/54 19/109/109 22/55/55
f 67/57/57 20/110/110 39/58/58
f 61/60/60 60/99/99 33/61/61
f 6/63/63 39/177/177 98/64/64
f 119/66/66 112/147/147 25/67/67
f 65/69/69 29/123/123 31/70/70
f 54/72/72 30/130/130 32/73/73
f 53/75/75 27/131/131 30/76/76
f 63/78/78 25/124/124 29/79/79
f 52/81/81 26/194/194 51/82/82
f 57/84/84 61/60/60 42/62/62
f 72/59/59 39/58/58 6/86/86
f 5/7/7 35/54/54 36/56/56
f 11/89/89 36/45/45 37/47/47
f 4/91/91 47/174/174 100/92/92
f 94/94/94 20/195/195 44/95/95
f 40/18/18 41/17/17 23/49/49
f 38/15/15 40/14/14 21/52/52
f 62/83/83 51/82/82 33/61/61
f 3/4/4 43/51/51 45/53/53
f 10/101/101 45/48/48 46/50/50
f 8/103/103 57/173/173 102/104/104
f 97/106/106 26/196/196 52/107/107
f 49/27/27 50/26/26 24/46/46
f 48/12/12 49/11/11 22/55/55
f 67/57/57 73/1/1 44/3/3
f 47/111/111 62/83/83 60/99/99
f 8/113/113 34/120/120 61/60/60
f 4/114/114 52/81/81 62/83/83
f 7/13/13 53/75/75 54/77/77
f 12/116/116 54/72/72 55/74/74
f 121/118/118 119/66/66 63/68/68
f 34/120/120 18/112/112 60/99/99
f 96/121/121 28/197/197 64/122/122
f 58/24/24 59/23/23 31/70/70
f 56/6/6 58/5/5 29/79/79
f 33/61/61 51/82/82 73/1/1
f 42/62/62 72/59/59 64/87/87
f 101/96/96 44/95/95 2/125/125
f 1/10/10 63/78/78 65/80/80
f 9/128/128 65/69/69 66/71/71
f 33/61/61 67/57/57 72/59/59
f 70/21/21 71/20/20 32/73/73
f 69/9/9 70/8/8 30/76/76
f 51/82/82 26/194/194 68/132/132
f 113/133/133 109/152/152 19/134/134
f 98/64/64 94/94/94 78/136/136
f 116/138/138 85/153/153 77/139/139
f 111/141/141 80/171/171 89/142/142
f 90/144/144 104/156/156 88/145/145
f 112/147/147 81/157/157 87/148/148
f 75/150/150 86/172/172 117/28/28
f 109/152/152 78/136/136 85/153/153
f 74/154/154 84/161/161 115/42/42
f 104/156/156 97/106/106 81/157/157
f 76/158/158 82/137/137 113/133/133
f 100/92/92 95/40/40 79/160/160
f 110/162/162 79/160/160 83/163/163
f 118/149/149 87/148/148 74/165/165
f 114/164/164 83/163/163 75/167/167
f 120/143/143 89/142/142 76/169/169
f 102/104/104 96/121/121 80/171/171
f 57/173/173 28/197/197 96/121/121
f 47/174/174 18/193/193 95/40/40
f 68/175/175 26/196/196 97/106/106
f 2/176/176 68/175/175 104/156/156
f 39/177/177 20/195/195 94/94/94
f 85/153/153 101/96/96 90/126/126
f 80/171/171 96/121/121 105/31/31
f 81/157/157 97/106/106 103/37/37
f 92/105/105 102/104/104 86/172/172
f 78/136/136 94/94/94 101/96/96
f 91/93/93 100/92/92 84/161/161
f 93/65/65 98/64/64 82/137/137
f 79/160/160 95/40/40 99/34/34
f 87/148/148 103/37/37 91/39/39
f 83/163/163 99/34/34 92/36/36
f 89/142/142 105/31/31 93/33/33
f 69/178/178 120/143/143 108/170/170
f 38/180/180 114/164/164 107/168/168
f 56/182/182 118/149/149 106/166/166
f 17/43/43 110/162/162 114/164/164
f 108/159/159 113/133/133 35/135/135
f 106/155/155 115/42/42 43/44/44
f 19/134/134 109/152/152 116/138/138
f 107/151/151 117/28/28 53/30/30
f 25/67/67 112/147/147 118/149/149
f 27/29/29 111/141/141 120/143/143
f 48/186/186 116/138/138 121/140/140
f 82/137/137 78/136/136 109/152/152
f 77/146/146 88/145/145 119/66/66
f 88/145/145 81/157/157 112/147/147
f 84/161/161 79/160/160 110/162/162
f 86/172/172 80/171/171 111/141/141
