# Blender v2.83.5 OBJ File: 'PilgrimHat.blend'
# www.blender.org
mtllib pilgrim.mtl
o PilgrimHat_Cube.002
v 0.256889 -0.061985 -0.256889
v -0.428093 -0.022669 0.428093
v -0.428093 -0.022669 -0.428093
v 0.198277 -0.525379 -0.198277
v 0.242255 -0.177681 0.242255
v 0.428093 -0.022668 0.428093
v 0.256889 -0.061985 0.256889
v 0.428093 -0.022668 -0.428093
v -0.256889 -0.061985 0.256889
v -0.256889 -0.061985 -0.256889
v 0.428093 -0.061985 0.428093
v 0.428093 -0.061985 -0.428093
v -0.428093 -0.061985 -0.428093
v -0.428093 -0.061985 0.428093
v 0.198277 -0.525379 0.198277
v -0.198276 -0.525379 -0.198277
v -0.198276 -0.525379 0.198277
v -0.242255 -0.177681 -0.242255
v -0.242255 -0.177681 0.242255
v 0.242255 -0.177681 -0.242255
v 0.273034 -0.046698 0.273034
v 0.273034 -0.046698 -0.273034
v -0.273034 -0.046699 0.273034
v -0.273034 -0.046699 -0.273034
v -0.258400 -0.180003 -0.258400
v -0.258400 -0.180003 0.258400
v 0.258400 -0.180003 0.258400
v 0.258400 -0.180003 -0.258400
v 0.256889 -0.044376 0.256889
v 0.256889 -0.044376 -0.256889
v -0.256889 -0.044377 0.256889
v -0.256889 -0.044377 -0.256889
v -0.242255 -0.177681 -0.242255
v -0.242255 -0.177681 0.242255
v 0.242255 -0.177681 0.242255
v 0.242255 -0.177681 -0.242255
v 0.071347 -0.074814 0.275942
v 0.071347 -0.172447 0.263973
v 0.071347 -0.072020 0.253158
v 0.071347 -0.169654 0.241189
v -0.071347 -0.074814 0.275942
v -0.071347 -0.172447 0.263973
v -0.071347 -0.072020 0.253158
v -0.071347 -0.169654 0.241189
v 0.085173 -0.061325 0.277596
v 0.085173 -0.185935 0.262320
v 0.085173 -0.183142 0.239536
v 0.085173 -0.058532 0.254812
v -0.085173 -0.058532 0.254812
v -0.085173 -0.183142 0.239536
v -0.085173 -0.185935 0.262320
v -0.085173 -0.061325 0.277596
vt 0.421875 0.414062
vt 0.757812 0.398438
vt 0.421875 0.398438
vt 0.296875 0.414062
vt 0.085938 0.460938
vt 0.085938 0.414062
vt 0.757812 0.414062
vt 0.421875 0.398438
vt 0.757812 0.398438
vt 0.085938 0.414062
vt 0.296875 0.460938
vt 0.296875 0.414062
vt 0.695312 0.460938
vt 0.484375 0.601562
vt 0.484375 0.460938
vt 0.359375 0.367188
vt 0.023438 0.023438
vt 0.023438 0.367188
vt 0.085938 0.898438
vt 0.023438 0.632812
vt 0.085938 0.695312
vt 0.296875 0.898438
vt 0.023438 0.968750
vt 0.296875 0.695312
vt 0.359375 0.968750
vt 0.359375 0.632812
vt 0.085938 0.898438
vt 0.296875 0.695312
vt 0.296875 0.898438
vt 0.484375 0.460938
vt 0.695312 0.601562
vt 0.695312 0.460938
vt 0.085938 0.460938
vt 0.296875 0.601562
vt 0.296875 0.460938
vt 0.085938 0.601562
vt 0.359375 0.414062
vt 0.023438 0.398438
vt 0.359375 0.398438
vt 0.023438 0.414062
vt 0.359375 0.398438
vt 0.023438 0.398438
vt 0.695312 0.414062
vt 0.484375 0.414062
vt 0.398438 0.203125
vt 0.671875 0.257812
vt 0.671875 0.203125
vt 0.671875 0.203125
vt 0.398438 0.257812
vt 0.398438 0.203125
vt 0.703125 0.203125
vt 0.984375 0.257812
vt 0.984375 0.203125
vt 0.984375 0.203125
vt 0.703125 0.257812
vt 0.703125 0.203125
vt 0.671875 0.257812
vt 0.398438 0.203125
vt 0.671875 0.203125
vt 0.398438 0.257812
vt 0.671875 0.203125
vt 0.398438 0.203125
vt 0.984375 0.257812
vt 0.703125 0.203125
vt 0.984375 0.203125
vt 0.703125 0.257812
vt 0.984375 0.203125
vt 0.703125 0.203125
vt 0.709839 0.205088
vt 0.977661 0.205088
vt 0.709839 0.205088
vt 0.404965 0.205088
vt 0.665348 0.205088
vt 0.404965 0.205088
vt 0.977661 0.205088
vt 0.709839 0.205088
vt 0.977661 0.205088
vt 0.665348 0.205088
vt 0.404965 0.205088
vt 0.665348 0.205088
vt 0.404965 0.255849
vt 0.665348 0.255849
vt 0.665348 0.255849
vt 0.665348 0.255849
vt 0.404965 0.255849
vt 0.404965 0.255849
vt 0.977661 0.255849
vt 0.709839 0.255849
vt 0.977661 0.255849
vt 0.709839 0.255849
vt 0.977661 0.255849
vt 0.709839 0.255849
vt 0.812500 0.710938
vt 0.835938 0.851562
vt 0.835938 0.710938
vt 0.757812 0.835938
vt 0.742188 0.726562
vt 0.742188 0.835938
vt 0.835938 0.851562
vt 0.812500 0.710938
vt 0.835938 0.710938
vt 0.585938 0.726562
vt 0.742188 0.710938
vt 0.742188 0.726562
vt 0.757812 0.921875
vt 0.570312 0.898438
vt 0.570312 0.921875
vt 0.570312 0.921875
vt 0.757812 0.898438
vt 0.757812 0.921875
vt 0.585938 0.835938
vt 0.570312 0.710938
vt 0.585938 0.726562
vt 0.585938 0.835938
vt 0.570312 0.710938
vt 0.570312 0.851562
vt 0.742188 0.726562
vt 0.585938 0.726562
vt 0.757812 0.851562
vt 0.742188 0.835938
vt 0.757812 0.710938
vt 0.757812 0.851562
vt 0.757812 0.710938
vt 0.570312 0.851562
vt 0.585938 0.851562
vt 0.742188 0.835938
vt 0.742188 0.851562
vt 0.757812 0.835938
vt 0.742188 0.726562
vt 0.757812 0.726562
vt 0.757812 0.414062
vt 0.421875 0.414062
vt 0.695312 0.601562
vt 0.359375 0.023438
vt 0.085938 0.695312
vt 0.484375 0.601562
vt 0.085938 0.601562
vt 0.296875 0.601562
vt 0.023438 0.414062
vt 0.359375 0.414062
vt 0.484375 0.414062
vt 0.695312 0.414062
vt 0.398438 0.257812
vt 0.671875 0.257812
vt 0.703125 0.257812
vt 0.984375 0.257812
vt 0.398438 0.257812
vt 0.671875 0.257812
vt 0.703125 0.257812
vt 0.984375 0.257812
vt 0.977661 0.205088
vt 0.665348 0.205088
vt 0.709839 0.205088
vt 0.404965 0.205088
vt 0.404965 0.255849
vt 0.665348 0.255849
vt 0.709839 0.255849
vt 0.977661 0.255849
vt 0.812500 0.851562
vt 0.757812 0.726562
vt 0.812500 0.851562
vt 0.585938 0.710938
vt 0.757812 0.898438
vt 0.570312 0.898438
vt 0.585938 0.835938
vt 0.742188 0.835938
vn 1.0000 0.0000 0.0000
vn 0.0000 -0.1255 0.9921
vn -1.0000 0.0000 0.0000
vn 0.0000 -0.1255 -0.9921
vn -0.9921 -0.1255 0.0000
vn -0.0000 1.0000 0.0000
vn 0.0000 -1.0000 0.0000
vn 0.9921 -0.1255 0.0000
vn -0.0000 0.0000 1.0000
vn -0.0000 0.0000 -1.0000
vn 0.0000 -0.1091 -0.9940
vn 0.0000 -0.1091 0.9940
vn 0.9940 -0.1091 0.0000
vn -0.9940 -0.1091 0.0000
vn -0.0000 0.1091 0.9940
vn -0.0000 0.1091 -0.9940
vn -0.9940 0.1091 0.0000
vn 0.9940 0.1091 0.0000
vn 0.1424 0.9898 0.0000
vn -0.0000 0.9898 -0.1424
vn -0.1424 0.9898 0.0000
vn -0.0000 0.9898 0.1424
vn 0.0000 -0.9898 0.1424
vn 0.0000 -0.9898 -0.1424
vn -0.1424 -0.9898 0.0000
vn 0.1424 -0.9898 0.0000
vn -0.0000 0.9926 0.1217
vn 0.0000 -0.9926 -0.1217
vn 0.0000 -0.1217 0.9926
vn -0.0000 0.1217 -0.9926
usemtl Pilgrim
s off
f 11/1/1 8/2/1 6/3/1
f 9/4/2 5/5/2 7/6/2
f 13/7/3 2/8/3 3/9/3
f 1/10/4 18/11/4 10/12/4
f 18/13/5 17/14/5 19/15/5
f 3/16/6 6/17/6 8/18/6
f 1/19/7 11/20/7 7/21/7
f 10/22/7 12/23/7 1/19/7
f 9/24/7 13/25/7 10/22/7
f 7/21/7 14/26/7 9/24/7
f 4/27/7 17/28/7 16/29/7
f 5/30/8 4/31/8 20/32/8
f 20/33/4 16/34/4 18/11/4
f 19/35/2 15/36/2 5/5/2
f 14/37/9 6/38/9 2/39/9
f 12/40/10 3/41/10 8/42/10
f 1/43/8 5/30/8 20/32/8
f 9/44/5 18/13/5 19/15/5
f 22/45/11 25/46/11 24/47/11
f 23/48/12 27/49/12 21/50/12
f 21/51/13 28/52/13 22/53/13
f 24/54/14 26/55/14 23/56/14
f 33/57/15 30/58/15 32/59/15
f 35/60/16 31/61/16 29/62/16
f 36/63/17 29/64/17 30/65/17
f 34/66/18 32/67/18 31/68/18
f 21/69/19 30/70/19 29/71/19
f 22/72/20 32/73/20 30/74/20
f 24/75/21 31/76/21 32/77/21
f 23/78/22 29/79/22 31/80/22
f 28/81/23 33/82/23 25/83/23
f 26/84/24 35/85/24 27/86/24
f 28/87/25 35/88/25 36/89/25
f 26/90/26 33/91/26 34/92/26
f 45/93/1 47/94/1 48/95/1
f 44/96/1 41/97/1 42/98/1
f 50/99/3 52/100/3 49/101/3
f 44/102/27 38/103/27 40/104/27
f 49/105/27 45/106/27 48/107/27
f 47/108/28 51/109/28 50/110/28
f 38/111/29 45/112/29 37/113/29
f 40/114/30 48/115/30 47/116/30
f 43/117/30 48/115/30 39/118/30
f 40/114/30 50/119/30 44/120/30
f 44/120/30 49/121/30 43/117/30
f 41/97/29 51/122/29 42/98/29
f 37/113/29 52/123/29 41/97/29
f 42/98/29 46/124/29 38/111/29
f 39/125/28 41/126/28 43/127/28
f 40/128/3 37/129/3 39/130/3
f 11/1/1 12/131/1 8/2/1
f 9/4/2 19/35/2 5/5/2
f 13/7/3 14/132/3 2/8/3
f 1/10/4 20/33/4 18/11/4
f 18/13/5 16/133/5 17/14/5
f 3/16/6 2/134/6 6/17/6
f 1/19/7 12/23/7 11/20/7
f 10/22/7 13/25/7 12/23/7
f 9/24/7 14/26/7 13/25/7
f 7/21/7 11/20/7 14/26/7
f 4/27/7 15/135/7 17/28/7
f 5/30/8 15/136/8 4/31/8
f 20/33/4 4/137/4 16/34/4
f 19/35/2 17/138/2 15/36/2
f 14/37/9 11/139/9 6/38/9
f 12/40/10 13/140/10 3/41/10
f 1/43/8 7/141/8 5/30/8
f 9/44/5 10/142/5 18/13/5
f 22/45/11 28/143/11 25/46/11
f 23/48/12 26/144/12 27/49/12
f 21/51/13 27/145/13 28/52/13
f 24/54/14 25/146/14 26/55/14
f 33/57/15 36/147/15 30/58/15
f 35/60/16 34/148/16 31/61/16
f 36/63/17 35/149/17 29/64/17
f 34/66/18 33/150/18 32/67/18
f 21/69/19 22/151/19 30/70/19
f 22/72/20 24/152/20 32/73/20
f 24/75/21 23/153/21 31/76/21
f 23/78/22 21/154/22 29/79/22
f 28/81/23 36/155/23 33/82/23
f 26/84/24 34/156/24 35/85/24
f 28/87/25 27/157/25 35/88/25
f 26/90/26 25/158/26 33/91/26
f 45/93/1 46/159/1 47/94/1
f 44/96/1 43/160/1 41/97/1
f 50/99/3 51/161/3 52/100/3
f 44/102/27 42/162/27 38/103/27
f 49/105/27 52/163/27 45/106/27
f 47/108/28 46/164/28 51/109/28
f 38/111/29 46/124/29 45/112/29
f 40/114/30 39/118/30 48/115/30
f 43/117/30 49/121/30 48/115/30
f 40/114/30 47/116/30 50/119/30
f 44/120/30 50/119/30 49/121/30
f 41/97/29 52/123/29 51/122/29
f 37/113/29 45/112/29 52/123/29
f 42/98/29 51/122/29 46/124/29
f 39/125/28 37/165/28 41/126/28
f 40/128/3 38/166/3 37/129/3
