# Blender v2.83.5 OBJ File: 'Horns.blend'
# www.blender.org
mtllib devil_horns.mtl
o Horns_Cube.008
v -0.223099 0.137508 -0.001676
v -0.211252 0.089795 0.047486
v -0.211252 0.089795 -0.050838
v -0.199405 0.042081 -0.001676
v -0.297641 0.117315 -0.001676
v -0.281946 0.070725 -0.050838
v -0.266252 0.024135 -0.001676
v -0.291408 0.004089 -0.001676
v -0.321400 0.031274 -0.042155
v -0.351392 0.058460 -0.001676
v -0.301237 -0.047527 -0.001676
v -0.327521 -0.054248 -0.028806
v -0.353806 -0.060969 -0.001676
v -0.253599 -0.127223 -0.001676
v -0.256375 -0.130724 -0.006145
v -0.259152 -0.134226 -0.001676
v -0.256375 -0.130724 0.002793
v -0.223099 0.137508 -0.001676
v -0.211252 0.089795 0.047486
v -0.199405 0.042081 -0.001676
v -0.297641 0.117315 -0.001676
v -0.281946 0.070725 0.047486
v -0.266252 0.024135 -0.001676
v -0.291408 0.004089 -0.001676
v -0.351392 0.058460 -0.001676
v -0.321400 0.031274 0.038803
v -0.301237 -0.047527 -0.001676
v -0.353806 -0.060969 -0.001676
v -0.327521 -0.054248 0.025454
v -0.253599 -0.127223 -0.001676
v -0.259152 -0.134226 -0.001676
v -0.256375 -0.130724 0.002793
v 0.223099 0.137508 -0.001676
v 0.211252 0.089795 0.047486
v 0.211252 0.089795 -0.050838
v 0.199405 0.042081 -0.001676
v 0.297641 0.117315 -0.001676
v 0.281946 0.070725 -0.050838
v 0.266252 0.024135 -0.001676
v 0.291408 0.004089 -0.001676
v 0.321400 0.031274 -0.042155
v 0.351392 0.058459 -0.001676
v 0.301237 -0.047527 -0.001676
v 0.327521 -0.054248 -0.028806
v 0.353806 -0.060970 -0.001676
v 0.253599 -0.127223 -0.001676
v 0.256375 -0.130725 -0.006145
v 0.259152 -0.134226 -0.001676
v 0.256375 -0.130725 0.002793
v 0.223099 0.137508 -0.001676
v 0.211252 0.089795 0.047486
v 0.199405 0.042081 -0.001676
v 0.297641 0.117315 -0.001676
v 0.281946 0.070725 0.047486
v 0.266252 0.024135 -0.001676
v 0.291408 0.004089 -0.001676
v 0.351392 0.058459 -0.001676
v 0.321400 0.031274 0.038803
v 0.301237 -0.047527 -0.001676
v 0.353806 -0.060970 -0.001676
v 0.327521 -0.054248 0.025454
v 0.253599 -0.127223 -0.001676
v 0.259152 -0.134226 -0.001676
v 0.256375 -0.130725 0.002793
vt 0.697999 0.806526
vt 0.741354 0.535566
vt 0.585308 0.642659
vt 0.533698 0.915838
vt 0.395607 0.506653
vt 0.418072 0.730002
vt 0.554474 0.494902
vt 0.707612 0.451699
vt 0.620548 0.266840
vt 0.534433 0.203511
vt 0.320312 0.765625
vt 0.281250 0.804688
vt 0.281250 0.765625
vt 0.719083 0.304582
vt 0.841089 0.069602
vt 0.832981 0.053777
vt 0.039062 0.710938
vt 0.218750 0.890625
vt 0.039062 0.890625
vt 0.585308 0.642659
vt 0.395607 0.506653
vt 0.554474 0.494902
vt 0.533698 0.915838
vt 0.418072 0.730002
vt 0.741354 0.535566
vt 0.697999 0.806526
vt 0.707612 0.451699
vt 0.620549 0.266840
vt 0.719083 0.304582
vt 0.841089 0.069602
vt 0.853452 0.082244
vt 0.534433 0.203511
vt 0.832981 0.053777
vt 0.697999 0.806526
vt 0.741354 0.535566
vt 0.853452 0.691833
vt 0.533698 0.915838
vt 0.585308 0.642659
vt 0.395607 0.506653
vt 0.418072 0.730002
vt 0.554474 0.494902
vt 0.620548 0.266840
vt 0.707612 0.451699
vt 0.534433 0.203511
vt 0.281250 0.804688
vt 0.320312 0.765625
vt 0.281250 0.765625
vt 0.841089 0.069602
vt 0.719083 0.304582
vt 0.832981 0.053777
vt 0.039062 0.890625
vt 0.218750 0.710938
vt 0.039062 0.710938
vt 0.585308 0.642659
vt 0.395607 0.506653
vt 0.418072 0.730002
vt 0.533698 0.915838
vt 0.741354 0.535566
vt 0.697999 0.806526
vt 0.853452 0.691833
vt 0.707612 0.451699
vt 0.620549 0.266840
vt 0.554474 0.494902
vt 0.719083 0.304582
vt 0.841089 0.069602
vt 0.534433 0.203511
vt 0.832981 0.053777
vt 0.853452 0.691833
vt 0.320312 0.804688
vt 0.853452 0.082244
vt 0.218750 0.710938
vt 0.853452 0.691833
vt 0.320312 0.804688
vt 0.853452 0.082244
vt 0.218750 0.890625
vt 0.853452 0.082244
vn 0.1843 -0.6834 -0.7064
vn -0.1842 0.6828 -0.7070
vn -0.5558 0.5076 -0.6584
vn 0.4306 -0.5824 -0.6894
vn 0.7411 -0.1550 -0.6532
vn -0.7982 0.0161 -0.6022
vn 0.7836 -0.6212 0.0000
vn 0.6193 0.3711 -0.6919
vn -0.4805 -0.6209 -0.6194
vn 0.9705 0.2410 0.0000
vn -0.5730 0.4178 0.7051
vn -0.1851 0.6831 0.7065
vn 0.1843 -0.6833 0.7064
vn 0.7282 -0.1387 0.6712
vn 0.4435 -0.5566 0.7025
vn 0.6269 0.3747 0.6831
vn -0.7097 -0.0588 0.7021
vn -0.4016 -0.5829 0.7063
vn -0.1834 -0.6830 -0.7070
vn 0.1842 0.6828 -0.7070
vn 0.5558 0.5076 -0.6584
vn -0.4306 -0.5824 -0.6894
vn -0.7411 -0.1550 -0.6532
vn 0.7982 0.0161 -0.6022
vn -0.7836 -0.6212 0.0000
vn -0.6193 0.3711 -0.6919
vn 0.4805 -0.6209 -0.6194
vn -0.9705 0.2410 0.0000
vn 0.5558 0.5076 0.6584
vn 0.1851 0.6831 0.7065
vn -0.1834 -0.6830 0.7070
vn -0.7411 -0.1550 0.6532
vn -0.4306 -0.5824 0.6894
vn -0.6193 0.3711 0.6919
vn 0.7982 0.0161 0.6022
vn 0.4805 -0.6209 0.6194
vn 0.1834 -0.6830 -0.7070
vn -0.1851 0.6831 -0.7065
vn -0.5730 0.4178 -0.7051
vn 0.4435 -0.5566 -0.7025
vn 0.7282 -0.1387 -0.6712
vn -0.7097 -0.0588 -0.7021
vn 0.6269 0.3747 -0.6831
vn -0.4016 -0.5829 -0.7063
vn -0.5558 0.5076 0.6584
vn -0.1842 0.6828 0.7070
vn 0.1834 -0.6830 0.7070
vn 0.7411 -0.1550 0.6532
vn 0.4306 -0.5824 0.6894
vn 0.6193 0.3711 0.6919
vn -0.7982 0.0161 0.6022
vn -0.4805 -0.6209 0.6194
vn -0.1843 -0.6833 -0.7064
vn 0.1851 0.6831 -0.7065
vn 0.5730 0.4178 -0.7051
vn -0.4435 -0.5566 -0.7025
vn -0.7282 -0.1387 -0.6712
vn 0.7097 -0.0588 -0.7021
vn -0.6269 0.3747 -0.6831
vn 0.4016 -0.5829 -0.7063
vn 0.5730 0.4178 0.7051
vn 0.1842 0.6828 0.7070
vn -0.1843 -0.6833 0.7064
vn -0.7282 -0.1387 0.6712
vn -0.4435 -0.5566 0.7025
vn -0.6269 0.3747 0.6831
vn 0.7097 -0.0588 0.7021
vn 0.4016 -0.5829 0.7063
usemtl Horns
s off
f 3/1/1 7/2/1 6/3/1
f 6/3/2 1/4/2 3/1/2
f 6/3/3 10/5/3 5/6/3
f 7/2/4 9/7/4 6/3/4
f 8/8/5 12/9/5 9/7/5
f 9/7/6 13/10/6 10/5/6
f 14/11/7 16/12/7 15/13/7
f 11/14/8 15/15/8 12/9/8
f 12/9/9 16/16/9 13/10/9
f 1/17/10 4/18/10 3/19/10
f 22/20/11 25/21/11 26/22/11
f 22/20/12 18/23/12 21/24/12
f 23/25/13 19/26/13 22/20/13
f 24/27/14 29/28/14 27/29/14
f 23/25/15 26/22/15 24/27/15
f 27/29/16 32/30/16 30/31/16
f 26/22/17 28/32/17 29/28/17
f 29/28/18 31/33/18 32/30/18
f 35/34/19 39/35/19 36/36/19
f 33/37/20 38/38/20 35/34/20
f 42/39/21 38/38/21 37/40/21
f 41/41/22 39/35/22 38/38/22
f 44/42/23 40/43/23 41/41/23
f 45/44/24 41/41/24 42/39/24
f 48/45/25 46/46/25 47/47/25
f 47/48/26 43/49/26 44/42/26
f 48/50/27 44/42/27 45/44/27
f 35/51/28 34/52/28 33/53/28
f 54/54/29 57/55/29 53/56/29
f 50/57/30 54/54/30 53/56/30
f 55/58/31 51/59/31 52/60/31
f 56/61/32 61/62/32 58/63/32
f 55/58/33 58/63/33 54/54/33
f 59/64/34 64/65/34 61/62/34
f 58/63/35 60/66/35 57/55/35
f 61/62/36 63/67/36 60/66/36
f 3/1/37 4/68/37 7/2/37
f 6/3/38 5/6/38 1/4/38
f 6/3/39 9/7/39 10/5/39
f 7/2/40 8/8/40 9/7/40
f 8/8/41 11/14/41 12/9/41
f 9/7/42 12/9/42 13/10/42
f 14/11/7 17/69/7 16/12/7
f 11/14/43 14/70/43 15/15/43
f 12/9/44 15/15/44 16/16/44
f 1/17/10 2/71/10 4/18/10
f 22/20/45 21/24/45 25/21/45
f 22/20/46 19/26/46 18/23/46
f 23/25/47 20/72/47 19/26/47
f 24/27/48 26/22/48 29/28/48
f 23/25/49 22/20/49 26/22/49
f 27/29/50 29/28/50 32/30/50
f 26/22/51 25/21/51 28/32/51
f 29/28/52 28/32/52 31/33/52
f 35/34/53 38/38/53 39/35/53
f 33/37/54 37/40/54 38/38/54
f 42/39/55 41/41/55 38/38/55
f 41/41/56 40/43/56 39/35/56
f 44/42/57 43/49/57 40/43/57
f 45/44/58 44/42/58 41/41/58
f 48/45/25 49/73/25 46/46/25
f 47/48/59 46/74/59 43/49/59
f 48/50/60 47/48/60 44/42/60
f 35/51/28 36/75/28 34/52/28
f 54/54/61 58/63/61 57/55/61
f 50/57/62 51/59/62 54/54/62
f 55/58/63 54/54/63 51/59/63
f 56/61/64 59/64/64 61/62/64
f 55/58/65 56/61/65 58/63/65
f 59/64/66 62/76/66 64/65/66
f 58/63/67 61/62/67 60/66/67
f 61/62/68 64/65/68 63/67/68
