# Blender v2.82 (sub 7) OBJ File: 'FoxHat.blend'
# www.blender.org
mtllib FoxHat.mtl
o FoxHat_Cube.001
v 0.265458 -0.128312 -0.267101
v -0.272031 -0.128312 -0.267101
v -0.272031 -0.128312 0.270388
v 0.265458 -0.128312 0.270388
v -0.272031 0.072486 -0.267101
v 0.265458 0.072486 -0.267101
v -0.272031 0.072486 0.270388
v 0.265458 0.072486 0.270388
v -0.272031 -0.016902 -0.267101
v 0.265458 -0.016902 -0.267101
v -0.272031 -0.016902 0.270388
v 0.265458 -0.016902 0.270388
v -0.272031 -0.128312 -0.085071
v -0.272031 -0.128312 0.088358
v 0.265458 -0.128312 0.088358
v 0.265458 -0.128312 -0.085071
v 0.265458 0.072486 -0.085071
v 0.265458 0.072486 0.088358
v -0.272031 0.072486 0.088358
v -0.272031 0.072486 -0.085071
v -0.272031 -0.016902 0.088358
v -0.272031 -0.016902 -0.085071
v 0.265458 -0.016902 -0.085071
v 0.265458 -0.016902 0.088358
v 0.380768 0.072486 -0.085071
v 0.380768 0.072486 0.088358
v 0.380768 -0.016902 -0.085071
v 0.380768 -0.016902 0.088358
v 0.184267 -0.128297 0.113621
v 0.184267 -0.227731 0.113621
v 0.147654 -0.128297 0.113621
v 0.147654 -0.227731 0.113621
v 0.184267 -0.128297 0.229423
v 0.184267 -0.227731 0.229423
v 0.147654 -0.128297 0.229423
v 0.147654 -0.227731 0.229423
v 0.089134 0.316492 0.252165
v 0.089134 0.072487 0.252165
v -0.002246 0.316492 0.252165
v -0.002246 0.072487 0.252165
v 0.089134 0.316492 0.270246
v 0.089134 0.072487 0.270246
v -0.002246 0.316492 0.270246
v -0.002246 0.072487 0.270246
v -0.251353 0.072486 -0.246423
v 0.244781 0.072486 -0.246423
v -0.251353 0.072486 0.249710
v 0.244781 0.072486 0.249710
v 0.244781 0.072486 -0.078400
v 0.244781 0.072486 0.081686
v -0.251353 0.072486 0.081686
v -0.251353 0.072486 -0.078400
v -0.272067 -0.008020 -0.043525
v -0.272067 -0.233077 -0.043525
v -0.367425 -0.008020 -0.043525
v -0.367425 -0.233077 -0.043525
v -0.272067 -0.008020 0.051834
v -0.272067 -0.233077 0.051834
v -0.367425 -0.008020 0.051834
v -0.367425 -0.233077 0.051834
v -0.272067 -0.008020 -0.043525
v -0.272067 -0.233077 -0.043525
v -0.367425 -0.008020 -0.043525
v -0.367425 -0.233077 -0.043525
v -0.272067 -0.008020 0.051834
v -0.272067 -0.233077 0.051834
v -0.367425 -0.008020 0.051834
v -0.367425 -0.233077 0.051834
v 0.184267 -0.128297 -0.221114
v 0.184267 -0.227731 -0.221114
v 0.147654 -0.128297 -0.221114
v 0.147654 -0.227731 -0.221114
v 0.184267 -0.128297 -0.105312
v 0.184267 -0.227731 -0.105312
v 0.147654 -0.128297 -0.105312
v 0.147654 -0.227731 -0.105312
v -0.002246 0.072487 0.270246
v -0.002246 0.316492 0.270246
v 0.089134 0.072487 0.270246
v 0.089134 0.316492 0.270246
v -0.002246 0.072487 0.252165
v -0.002246 0.316492 0.252165
v 0.089134 0.072487 0.252165
v 0.089134 0.316492 0.252165
v -0.002246 0.072487 -0.249884
v -0.002246 0.316492 -0.249884
v 0.089134 0.072487 -0.249884
v 0.089134 0.316492 -0.249884
v -0.002246 0.072487 -0.267965
v -0.002246 0.316492 -0.267965
v 0.089134 0.072487 -0.267965
v 0.089134 0.316492 -0.267965
v 0.139593 -0.128312 -0.267101
v 0.139593 -0.128312 0.270388
v 0.139593 0.072486 0.270388
v 0.139593 0.072486 -0.267101
v 0.139593 -0.016902 -0.267101
v 0.139593 -0.016902 0.270388
v 0.139593 -0.128312 0.088358
v 0.139593 -0.128312 -0.085071
v 0.140218 0.072486 0.249710
v 0.140218 0.072486 -0.246423
vt 0.132812 0.781250
vt 0.000000 0.488081
vt 0.132812 0.488081
vt 0.000000 0.265625
vt 0.125000 0.210938
vt 0.125000 0.265625
vt 0.437500 0.062500
vt 0.523485 0.000000
vt 0.523485 0.062500
vt -0.000000 0.062500
vt 0.125000 -0.000000
vt 0.125000 0.062500
vt 0.804688 0.062500
vt 0.523485 0.000000
vt 0.523485 0.062500
vt 0.804688 0.132812
vt 0.523485 0.132812
vt -0.000000 0.132812
vt 0.125000 0.132812
vt 0.523485 0.132812
vt 0.000000 0.343750
vt 0.125000 0.343750
vt 0.242188 0.343750
vt 0.367188 0.265625
vt 0.367188 0.343750
vt 0.242188 0.265625
vt 0.242188 0.132812
vt 0.367188 0.062500
vt 0.367188 0.132812
vt 0.242188 0.062500
vt 0.367188 -0.000000
vt 0.242188 -0.000000
vt 0.367188 0.210938
vt 0.851562 0.468750
vt 1.000000 0.367188
vt 1.000000 0.468750
vt 0.382812 0.781250
vt 0.250000 0.488081
vt 0.382812 0.488081
vt 0.250000 0.781250
vt 0.851562 0.328125
vt 1.000000 0.250000
vt 1.000000 0.328125
vt 0.796875 0.320312
vt 0.703125 0.250000
vt 0.796875 0.250000
vt 1.000000 0.109375
vt 0.851562 0.210938
vt 0.851562 0.109375
vt 0.796875 0.250000
vt 0.703125 0.320312
vt 0.796875 0.320312
vt 0.437500 0.765625
vt 0.468750 0.671875
vt 0.437500 0.671875
vt 0.703125 0.906250
vt 0.593750 0.812500
vt 0.703125 0.812500
vt 0.468750 0.765625
vt 0.437500 0.671875
vt 0.468750 0.671875
vt 0.703125 0.765625
vt 0.593750 0.671875
vt 0.703125 0.671875
vt 0.593750 0.617188
vt 0.703125 0.585938
vt 0.703125 0.617188
vt 0.531250 0.429688
vt 0.617188 0.195312
vt 0.531250 0.195312
vt 0.437500 0.429688
vt 0.460938 0.195312
vt 0.437500 0.195312
vt 0.617188 0.429688
vt 0.531250 0.195312
vt 0.617188 0.195312
vt 0.460938 0.429688
vt 0.437500 0.195312
vt 0.460938 0.195312
vt 0.460938 0.476562
vt 0.437500 0.562500
vt 0.437500 0.476562
vt 2.031250 -0.683594
vt 1.781250 -0.433594
vt 1.781250 -0.683594
vt 0.250000 0.398438
vt 0.132812 0.414062
vt 0.132812 0.398438
vt 0.867188 0.210938
vt 0.984375 0.195312
vt 0.984375 0.210938
vt 1.000000 0.117188
vt 0.984375 0.195312
vt 0.984375 0.117969
vt 0.859375 0.210938
vt 1.000000 0.210938
vt 0.367188 0.414062
vt 0.250000 0.414062
vt 0.984375 0.210938
vt 0.867188 0.195312
vt 0.984375 0.195312
vt 0.000000 0.691606
vt 0.015625 0.414062
vt 0.015625 0.691532
vt 0.000000 0.398438
vt 1.000000 0.882812
vt 0.921875 0.695312
vt 1.000000 0.695312
vt 0.921875 0.882812
vt 1.000000 0.695312
vt 0.921875 0.695312
vt 1.000000 0.578125
vt 0.921875 0.656250
vt 0.921875 0.578125
vt 0.921875 1.000000
vt 1.000000 0.921875
vt 1.000000 1.000000
vt 0.789062 0.882812
vt 0.867188 0.695312
vt 0.789062 0.695312
vt 0.867188 0.882812
vt 0.789062 0.695312
vt 0.867188 0.695312
vt 0.437500 0.765625
vt 0.468750 0.671875
vt 0.437500 0.671875
vt 0.703125 0.906250
vt 0.593750 0.812500
vt 0.703125 0.812500
vt 0.468750 0.765625
vt 0.437500 0.671875
vt 0.468750 0.671875
vt 0.703125 0.765625
vt 0.593750 0.671875
vt 0.703125 0.671875
vt 0.593750 0.617188
vt 0.703125 0.585938
vt 0.703125 0.617188
vt 0.460938 0.476562
vt 0.437500 0.562500
vt 0.437500 0.476562
vt 0.437500 0.429688
vt 0.460938 0.195312
vt 0.437500 0.195312
vt 0.531250 0.429688
vt 0.617188 0.195312
vt 0.531250 0.195312
vt 0.460938 0.429688
vt 0.437500 0.195312
vt 0.460938 0.195312
vt 2.031250 -0.683594
vt 1.781250 -0.433594
vt 1.781250 -0.683594
vt 0.617188 0.429688
vt 0.531250 0.195312
vt 0.617188 0.195312
vt 0.460938 0.476562
vt 0.437500 0.562500
vt 0.437500 0.476562
vt 0.437500 0.429688
vt 0.460938 0.195312
vt 0.437500 0.195312
vt 0.531250 0.429688
vt 0.617188 0.195312
vt 0.531250 0.195312
vt 0.460938 0.429688
vt 0.437500 0.195312
vt 0.460938 0.195312
vt 2.031250 -0.683594
vt 1.781250 -0.433594
vt 1.781250 -0.683594
vt 0.617188 0.429688
vt 0.531250 0.195312
vt 0.617188 0.195312
vt 0.851562 0.125000
vt 0.851562 0.210938
vt 0.382812 0.691606
vt 0.382812 0.398438
vt 0.132812 0.398438
vt 0.250000 0.398438
vt 0.382812 0.398438
vt 0.804688 0.062500
vt 0.804688 0.132812
vt 0.437500 0.062500
vt 0.437500 0.132812
vt 0.437500 -0.000000
vt 0.804688 -0.000000
vt 0.000000 0.398438
vt 0.000000 0.781250
vt 0.000000 0.210938
vt 0.437500 -0.000000
vt -0.000000 -0.000000
vt 0.804688 -0.000000
vt 0.437500 0.132812
vt 0.242188 0.210938
vt 0.851562 0.367188
vt 0.851562 0.250000
vt 0.703125 0.320312
vt 1.000000 0.210938
vt 0.703125 0.250000
vt 0.468750 0.765625
vt 0.593750 0.906250
vt 0.437500 0.765625
vt 0.593750 0.765625
vt 0.593750 0.585938
vt 0.617188 0.429688
vt 0.460938 0.429688
vt 0.531250 0.429688
vt 0.437500 0.429688
vt 0.460938 0.562500
vt 2.031250 -0.433594
vt 0.867188 0.195312
vt 0.859375 0.195312
vt 0.921875 0.882812
vt 1.000000 0.882812
vt 1.000000 0.656250
vt 0.921875 0.921875
vt 0.867188 0.882812
vt 0.789062 0.882812
vt 0.468750 0.765625
vt 0.593750 0.906250
vt 0.437500 0.765625
vt 0.593750 0.765625
vt 0.593750 0.585938
vt 0.460938 0.562500
vt 0.460938 0.429688
vt 0.617188 0.429688
vt 0.437500 0.429688
vt 2.031250 -0.433594
vt 0.531250 0.429688
vt 0.460938 0.562500
vt 0.460938 0.429688
vt 0.617188 0.429688
vt 0.437500 0.429688
vt 2.031250 -0.433594
vt 0.531250 0.429688
vt 0.867188 0.125000
vt 0.367188 0.691573
vn 0.0000 -1.0000 0.0000
vn 1.0000 0.0000 -0.0000
vn 0.0000 0.0000 1.0000
vn -1.0000 0.0000 0.0000
vn 0.0000 0.0000 -1.0000
vn 0.0000 1.0000 0.0000
usemtl Material.002
s off
f 13/1/1 93/2/1 100/3/1
f 10/4/2 17/5/2 23/6/2
f 12/7/3 95/8/3 98/9/3
f 11/10/4 19/11/4 21/12/4
f 9/13/5 96/14/5 97/15/5
f 2/16/5 97/15/5 93/17/5
f 3/18/4 21/12/4 14/19/4
f 94/20/3 12/7/3 98/9/3
f 1/21/2 23/6/2 16/22/2
f 15/23/2 12/24/2 4/25/2
f 16/22/2 24/26/2 15/23/2
f 13/27/4 9/28/4 2/29/4
f 14/19/4 22/30/4 13/27/4
f 22/30/4 5/31/4 9/28/4
f 21/12/4 20/32/4 22/30/4
f 24/26/2 8/33/2 12/24/2
f 23/34/1 28/35/1 24/36/1
f 3/37/1 99/38/1 94/39/1
f 14/40/1 100/3/1 99/38/1
f 27/41/2 26/42/2 28/43/2
f 24/44/3 26/45/3 18/46/3
f 18/47/6 25/48/6 17/49/6
f 17/50/5 27/51/5 23/52/5
f 30/53/5 31/54/5 29/55/5
f 32/56/4 35/57/4 31/58/4
f 36/59/3 33/60/3 35/61/3
f 34/62/2 29/63/2 33/64/2
f 32/65/1 34/66/1 36/67/1
f 38/68/5 39/69/5 37/70/5
f 40/71/4 43/72/4 39/73/4
f 44/74/3 41/75/3 43/76/3
f 42/77/2 37/78/2 41/79/2
f 43/80/6 37/81/6 39/82/6
f 40/83/1 42/84/1 44/85/1
f 19/86/6 52/87/6 20/88/6
f 17/89/6 50/90/6 18/91/6
f 95/92/6 48/93/6 101/94/6
f 18/95/6 48/93/6 8/96/6
f 19/86/6 47/97/6 51/98/6
f 17/99/6 46/100/6 49/101/6
f 96/102/6 45/103/6 102/104/6
f 20/88/6 45/103/6 5/105/6
f 56/106/4 59/107/4 55/108/4
f 58/109/2 53/110/2 57/111/2
f 59/112/6 53/113/6 55/114/6
f 56/115/1 58/116/1 60/117/1
f 62/118/5 63/119/5 61/120/5
f 68/121/3 65/122/3 67/123/3
f 70/124/5 71/125/5 69/126/5
f 72/127/4 75/128/4 71/129/4
f 76/130/3 73/131/3 75/132/3
f 74/133/2 69/134/2 73/135/2
f 72/136/1 74/137/1 76/138/1
f 78/139/6 84/140/6 82/141/6
f 81/142/4 78/143/4 82/144/4
f 83/145/5 82/146/5 84/147/5
f 79/148/2 84/149/2 80/150/2
f 81/151/1 79/152/1 77/153/1
f 77/154/3 80/155/3 78/156/3
f 86/157/6 92/158/6 90/159/6
f 89/160/4 86/161/4 90/162/4
f 91/163/5 90/164/5 92/165/5
f 87/166/2 92/167/2 88/168/2
f 89/169/1 87/170/1 85/171/1
f 85/172/3 88/173/3 86/174/3
f 96/175/6 46/100/6 6/176/6
f 95/177/6 47/97/6 7/178/6
f 99/38/1 16/179/1 15/180/1
f 94/39/1 15/180/1 4/181/1
f 94/20/3 11/182/3 3/183/3
f 93/17/5 10/184/5 1/185/5
f 97/15/5 6/186/5 10/184/5
f 98/9/3 7/187/3 11/182/3
f 100/3/1 1/188/1 16/179/1
f 13/1/1 2/189/1 93/2/1
f 10/4/2 6/190/2 17/5/2
f 12/7/3 8/191/3 95/8/3
f 11/10/4 7/192/4 19/11/4
f 9/13/5 5/193/5 96/14/5
f 2/16/5 9/13/5 97/15/5
f 3/18/4 11/10/4 21/12/4
f 94/20/3 4/194/3 12/7/3
f 1/21/2 10/4/2 23/6/2
f 15/23/2 24/26/2 12/24/2
f 16/22/2 23/6/2 24/26/2
f 13/27/4 22/30/4 9/28/4
f 14/19/4 21/12/4 22/30/4
f 22/30/4 20/32/4 5/31/4
f 21/12/4 19/11/4 20/32/4
f 24/26/2 18/195/2 8/33/2
f 23/34/1 27/196/1 28/35/1
f 3/37/1 14/40/1 99/38/1
f 14/40/1 13/1/1 100/3/1
f 27/41/2 25/197/2 26/42/2
f 24/44/3 28/198/3 26/45/3
f 18/47/6 26/199/6 25/48/6
f 17/50/5 25/200/5 27/51/5
f 30/53/5 32/201/5 31/54/5
f 32/56/4 36/202/4 35/57/4
f 36/59/3 34/203/3 33/60/3
f 34/62/2 30/204/2 29/63/2
f 32/65/1 30/205/1 34/66/1
f 38/68/5 40/206/5 39/69/5
f 40/71/4 44/207/4 43/72/4
f 44/74/3 42/208/3 41/75/3
f 42/77/2 38/209/2 37/78/2
f 43/80/6 41/210/6 37/81/6
f 40/83/1 38/211/1 42/84/1
f 19/86/6 51/98/6 52/87/6
f 17/89/6 49/212/6 50/90/6
f 95/92/6 8/96/6 48/93/6
f 18/95/6 50/213/6 48/93/6
f 19/86/6 7/178/6 47/97/6
f 17/99/6 6/176/6 46/100/6
f 96/102/6 5/105/6 45/103/6
f 20/88/6 52/87/6 45/103/6
f 56/106/4 60/214/4 59/107/4
f 58/109/2 54/215/2 53/110/2
f 59/112/6 57/216/6 53/113/6
f 56/115/1 54/217/1 58/116/1
f 62/118/5 64/218/5 63/119/5
f 68/121/3 66/219/3 65/122/3
f 70/124/5 72/220/5 71/125/5
f 72/127/4 76/221/4 75/128/4
f 76/130/3 74/222/3 73/131/3
f 74/133/2 70/223/2 69/134/2
f 72/136/1 70/224/1 74/137/1
f 78/139/6 80/225/6 84/140/6
f 81/142/4 77/226/4 78/143/4
f 83/145/5 81/227/5 82/146/5
f 79/148/2 83/228/2 84/149/2
f 81/151/1 83/229/1 79/152/1
f 77/154/3 79/230/3 80/155/3
f 86/157/6 88/231/6 92/158/6
f 89/160/4 85/232/4 86/161/4
f 91/163/5 89/233/5 90/164/5
f 87/166/2 91/234/2 92/167/2
f 89/169/1 91/235/1 87/170/1
f 85/172/3 87/236/3 88/173/3
f 96/175/6 102/237/6 46/100/6
f 95/177/6 101/238/6 47/97/6
f 99/38/1 100/3/1 16/179/1
f 94/39/1 99/38/1 15/180/1
f 94/20/3 98/9/3 11/182/3
f 93/17/5 97/15/5 10/184/5
f 97/15/5 96/14/5 6/186/5
f 98/9/3 95/8/3 7/187/3
f 100/3/1 93/2/1 1/188/1
